<?xml version="1.0" encoding="UTF-8" standalone="no"?>
<svg
   xmlns:dc="http://purl.org/dc/elements/1.1/"
   xmlns:cc="http://creativecommons.org/ns#"
   xmlns:rdf="http://www.w3.org/1999/02/22-rdf-syntax-ns#"
   xmlns:svg="http://www.w3.org/2000/svg"
   xmlns="http://www.w3.org/2000/svg"
   xmlns:sodipodi="http://sodipodi.sourceforge.net/DTD/sodipodi-0.dtd"
   xmlns:inkscape="http://www.inkscape.org/namespaces/inkscape"
   version="1.1"
   viewBox="0 0 8000 8000"
   id="svg42"
   sodipodi:docname="indexSuttaCentral-bw.svg"
   inkscape:version="0.92.3 (2405546, 2018-03-11)">
  <metadata
     id="metadata48">
    <rdf:RDF>
      <cc:Work
         rdf:about="">
        <dc:format>image/svg+xml</dc:format>
        <dc:type
           rdf:resource="http://purl.org/dc/dcmitype/StillImage" />
        <dc:title></dc:title>
      </cc:Work>
    </rdf:RDF>
  </metadata>
  <defs
     id="defs46" />
  <sodipodi:namedview
     pagecolor="#ffffff"
     bordercolor="#666666"
     borderopacity="1"
     objecttolerance="10"
     gridtolerance="10"
     guidetolerance="10"
     inkscape:pageopacity="0"
     inkscape:pageshadow="2"
     inkscape:window-width="1920"
     inkscape:window-height="988"
     id="namedview44"
     showgrid="false"
     inkscape:zoom="0.087347656"
     inkscape:cx="4080.1395"
     inkscape:cy="4000"
     inkscape:window-x="-12"
     inkscape:window-y="-12"
     inkscape:window-maximized="1"
     inkscape:current-layer="g40" />
  <g
     transform="translate(0 8e3) scale(.1 -.1)"
     fill="#b30309"
     id="g40">
    <rect
       x="18000"
       y="18000"
       width="45000"
       height="45000"
       fill="#ffc107"
       id="rect2"
       style="fill:#ffffff;fill-opacity:1" />
    <rect
       x="35000"
       y="-22000"
       width="45000"
       height="45000"
       transform="rotate(45)"
       fill="#ffc107"
       id="rect4"
       style="fill:#fffefc;fill-opacity:1" />
    <path
       d="m39730 74861c-2167-1091-4101-2638-5710-4566-1532-1837-2733-3993-3520-6320-109-324-238-737-247-788-3-23 502-1864 1767-6437 975-3523 1773-6416 1775-6430 2-17 8-25 21-24 21 1 3495 1381 3505 1392 4 4-47 117-112 252-1092 2257-1975 5120-2303 7465-153 1094-165 1952-35 2630 299 1565 1104 3144 2265 4440 144 162 517 537 689 694 626 571 1265 1029 2018 1446l177 99v3143c0 1729-3 3142-7 3142-5 0-132-62-283-138zM39730 74861"
       id="path6"
       style="fill:#000000;fill-opacity:1" />
    <path
       d="m39730 74861c-2167-1091-4101-2638-5710-4566-1532-1837-2733-3993-3520-6320-109-324-238-737-247-788-3-23 502-1864 1767-6437 975-3523 1773-6416 1775-6430 2-17 8-25 21-24 21 1 3495 1381 3505 1392 4 4-47 117-112 252-1092 2257-1975 5120-2303 7465-153 1094-165 1952-35 2630 299 1565 1104 3144 2265 4440 144 162 517 537 689 694 626 571 1265 1029 2018 1446l177 99v3143c0 1729-3 3142-7 3142-5 0-132-62-283-138zM39730 74861"
       transform="rotate(45 4e4 4e4)"
       id="path8"
       style="fill:#000000;fill-opacity:1" />
    <path
       d="m39730 74861c-2167-1091-4101-2638-5710-4566-1532-1837-2733-3993-3520-6320-109-324-238-737-247-788-3-23 502-1864 1767-6437 975-3523 1773-6416 1775-6430 2-17 8-25 21-24 21 1 3495 1381 3505 1392 4 4-47 117-112 252-1092 2257-1975 5120-2303 7465-153 1094-165 1952-35 2630 299 1565 1104 3144 2265 4440 144 162 517 537 689 694 626 571 1265 1029 2018 1446l177 99v3143c0 1729-3 3142-7 3142-5 0-132-62-283-138zM39730 74861"
       transform="rotate(90 4e4 4e4)"
       id="path10"
       style="fill:#000000;fill-opacity:1" />
    <path
       d="m39730 74861c-2167-1091-4101-2638-5710-4566-1532-1837-2733-3993-3520-6320-109-324-238-737-247-788-3-23 502-1864 1767-6437 975-3523 1773-6416 1775-6430 2-17 8-25 21-24 21 1 3495 1381 3505 1392 4 4-47 117-112 252-1092 2257-1975 5120-2303 7465-153 1094-165 1952-35 2630 299 1565 1104 3144 2265 4440 144 162 517 537 689 694 626 571 1265 1029 2018 1446l177 99v3143c0 1729-3 3142-7 3142-5 0-132-62-283-138zM39730 74861"
       transform="rotate(135 4e4 4e4)"
       id="path12"
       style="fill:#000000;fill-opacity:1" />
    <path
       d="m39730 74861c-2167-1091-4101-2638-5710-4566-1532-1837-2733-3993-3520-6320-109-324-238-737-247-788-3-23 502-1864 1767-6437 975-3523 1773-6416 1775-6430 2-17 8-25 21-24 21 1 3495 1381 3505 1392 4 4-47 117-112 252-1092 2257-1975 5120-2303 7465-153 1094-165 1952-35 2630 299 1565 1104 3144 2265 4440 144 162 517 537 689 694 626 571 1265 1029 2018 1446l177 99v3143c0 1729-3 3142-7 3142-5 0-132-62-283-138zM39730 74861"
       transform="rotate(180 4e4 4e4)"
       id="path14"
       style="fill:#000000;fill-opacity:1" />
    <path
       d="m39730 74861c-2167-1091-4101-2638-5710-4566-1532-1837-2733-3993-3520-6320-109-324-238-737-247-788-3-23 502-1864 1767-6437 975-3523 1773-6416 1775-6430 2-17 8-25 21-24 21 1 3495 1381 3505 1392 4 4-47 117-112 252-1092 2257-1975 5120-2303 7465-153 1094-165 1952-35 2630 299 1565 1104 3144 2265 4440 144 162 517 537 689 694 626 571 1265 1029 2018 1446l177 99v3143c0 1729-3 3142-7 3142-5 0-132-62-283-138zM39730 74861"
       transform="rotate(225 4e4 4e4)"
       id="path16"
       style="fill:#000000;fill-opacity:1" />
    <path
       d="m39730 74861c-2167-1091-4101-2638-5710-4566-1532-1837-2733-3993-3520-6320-109-324-238-737-247-788-3-23 502-1864 1767-6437 975-3523 1773-6416 1775-6430 2-17 8-25 21-24 21 1 3495 1381 3505 1392 4 4-47 117-112 252-1092 2257-1975 5120-2303 7465-153 1094-165 1952-35 2630 299 1565 1104 3144 2265 4440 144 162 517 537 689 694 626 571 1265 1029 2018 1446l177 99v3143c0 1729-3 3142-7 3142-5 0-132-62-283-138zM39730 74861"
       transform="rotate(-90 4e4 4e4)"
       id="path18"
       style="fill:#000000;fill-opacity:1" />
    <path
       d="m39730 74861c-2167-1091-4101-2638-5710-4566-1532-1837-2733-3993-3520-6320-109-324-238-737-247-788-3-23 502-1864 1767-6437 975-3523 1773-6416 1775-6430 2-17 8-25 21-24 21 1 3495 1381 3505 1392 4 4-47 117-112 252-1092 2257-1975 5120-2303 7465-153 1094-165 1952-35 2630 299 1565 1104 3144 2265 4440 144 162 517 537 689 694 626 571 1265 1029 2018 1446l177 99v3143c0 1729-3 3142-7 3142-5 0-132-62-283-138zM39730 74861"
       transform="rotate(-45 4e4 4e4)"
       id="path20"
       style="fill:#000000;fill-opacity:1" />
    <path
       d="m39730 74861c-2167-1091-4101-2638-5710-4566-1532-1837-2733-3993-3520-6320-109-324-238-737-247-788-3-23 502-1864 1767-6437 975-3523 1773-6416 1775-6430 2-17 8-25 21-24 21 1 3495 1381 3505 1392 4 4-47 117-112 252-1092 2257-1975 5120-2303 7465-153 1094-165 1952-35 2630 299 1565 1104 3144 2265 4440 144 162 517 537 689 694 626 571 1265 1029 2018 1446l177 99v3143c0 1729-3 3142-7 3142-5 0-132-62-283-138zM39730 74861"
       transform="translate(8e4) scale(-1 1)"
       id="path22"
       style="fill:#000000;fill-opacity:1" />
    <path
       d="m39730 74861c-2167-1091-4101-2638-5710-4566-1532-1837-2733-3993-3520-6320-109-324-238-737-247-788-3-23 502-1864 1767-6437 975-3523 1773-6416 1775-6430 2-17 8-25 21-24 21 1 3495 1381 3505 1392 4 4-47 117-112 252-1092 2257-1975 5120-2303 7465-153 1094-165 1952-35 2630 299 1565 1104 3144 2265 4440 144 162 517 537 689 694 626 571 1265 1029 2018 1446l177 99v3143c0 1729-3 3142-7 3142-5 0-132-62-283-138zM39730 74861"
       transform="translate(8e4) scale(-1 1) rotate(45 4e4 4e4)"
       id="path24"
       style="fill:#000000;fill-opacity:1" />
    <path
       d="m39730 74861c-2167-1091-4101-2638-5710-4566-1532-1837-2733-3993-3520-6320-109-324-238-737-247-788-3-23 502-1864 1767-6437 975-3523 1773-6416 1775-6430 2-17 8-25 21-24 21 1 3495 1381 3505 1392 4 4-47 117-112 252-1092 2257-1975 5120-2303 7465-153 1094-165 1952-35 2630 299 1565 1104 3144 2265 4440 144 162 517 537 689 694 626 571 1265 1029 2018 1446l177 99v3143c0 1729-3 3142-7 3142-5 0-132-62-283-138zM39730 74861"
       transform="translate(8e4) scale(-1 1) rotate(90 4e4 4e4)"
       id="path26"
       style="fill:#000000;fill-opacity:1" />
    <path
       d="m39730 74861c-2167-1091-4101-2638-5710-4566-1532-1837-2733-3993-3520-6320-109-324-238-737-247-788-3-23 502-1864 1767-6437 975-3523 1773-6416 1775-6430 2-17 8-25 21-24 21 1 3495 1381 3505 1392 4 4-47 117-112 252-1092 2257-1975 5120-2303 7465-153 1094-165 1952-35 2630 299 1565 1104 3144 2265 4440 144 162 517 537 689 694 626 571 1265 1029 2018 1446l177 99v3143c0 1729-3 3142-7 3142-5 0-132-62-283-138zM39730 74861"
       transform="translate(8e4) scale(-1 1) rotate(135 4e4 4e4)"
       id="path28"
       style="fill:#000000;fill-opacity:1" />
    <path
       d="m39730 74861c-2167-1091-4101-2638-5710-4566-1532-1837-2733-3993-3520-6320-109-324-238-737-247-788-3-23 502-1864 1767-6437 975-3523 1773-6416 1775-6430 2-17 8-25 21-24 21 1 3495 1381 3505 1392 4 4-47 117-112 252-1092 2257-1975 5120-2303 7465-153 1094-165 1952-35 2630 299 1565 1104 3144 2265 4440 144 162 517 537 689 694 626 571 1265 1029 2018 1446l177 99v3143c0 1729-3 3142-7 3142-5 0-132-62-283-138zM39730 74861"
       transform="translate(8e4) scale(-1 1) rotate(180 4e4 4e4)"
       id="path30"
       style="fill:#000000;fill-opacity:1" />
    <path
       d="m39730 74861c-2167-1091-4101-2638-5710-4566-1532-1837-2733-3993-3520-6320-109-324-238-737-247-788-3-23 502-1864 1767-6437 975-3523 1773-6416 1775-6430 2-17 8-25 21-24 21 1 3495 1381 3505 1392 4 4-47 117-112 252-1092 2257-1975 5120-2303 7465-153 1094-165 1952-35 2630 299 1565 1104 3144 2265 4440 144 162 517 537 689 694 626 571 1265 1029 2018 1446l177 99v3143c0 1729-3 3142-7 3142-5 0-132-62-283-138zM39730 74861"
       transform="translate(8e4) scale(-1 1) rotate(225 4e4 4e4)"
       id="path32"
       style="fill:#000000;fill-opacity:1" />
    <path
       d="m39730 74861c-2167-1091-4101-2638-5710-4566-1532-1837-2733-3993-3520-6320-109-324-238-737-247-788-3-23 502-1864 1767-6437 975-3523 1773-6416 1775-6430 2-17 8-25 21-24 21 1 3495 1381 3505 1392 4 4-47 117-112 252-1092 2257-1975 5120-2303 7465-153 1094-165 1952-35 2630 299 1565 1104 3144 2265 4440 144 162 517 537 689 694 626 571 1265 1029 2018 1446l177 99v3143c0 1729-3 3142-7 3142-5 0-132-62-283-138zM39730 74861"
       transform="translate(8e4) scale(-1 1) rotate(-90 4e4 4e4)"
       id="path34"
       style="fill:#000000;fill-opacity:1" />
    <path
       d="m39730 74861c-2167-1091-4101-2638-5710-4566-1532-1837-2733-3993-3520-6320-109-324-238-737-247-788-3-23 502-1864 1767-6437 975-3523 1773-6416 1775-6430 2-17 8-25 21-24 21 1 3495 1381 3505 1392 4 4-47 117-112 252-1092 2257-1975 5120-2303 7465-153 1094-165 1952-35 2630 299 1565 1104 3144 2265 4440 144 162 517 537 689 694 626 571 1265 1029 2018 1446l177 99v3143c0 1729-3 3142-7 3142-5 0-132-62-283-138zM39730 74861"
       transform="translate(8e4) scale(-1 1) rotate(-45 4e4 4e4)"
       id="path36"
       style="fill:#000000;fill-opacity:1" />
    <circle
       cx="40000"
       cy="40000"
       r="6000"
       fill="#fff"
       id="circle38"
       style="fill:#000000;fill-opacity:1" />
  </g>
</svg>
